<svg version="1.1" id="Layer_1" xmlns="http://www.w3.org/2000/svg" xmlns:xlink="http://www.w3.org/1999/xlink" x="0px" y="0px" viewBox="0 0 469.333 469.333" style="enable-background:new 0 0 469.333 469.333;" xml:space="preserve">
<g>
	<path d="M144.646,31.698c-2.938-1.979-6.667-2.396-9.938-1.073L51.271,64H10.667C4.771,64,0,68.771,0,74.667v106.667
		C0,187.229,4.771,192,10.667,192h40.604l83.438,33.375c1.271,0.51,2.625,0.76,3.958,0.76c2.104,0,4.188-0.625,5.979-1.833
		c2.938-1.99,4.688-5.292,4.688-8.833V40.531C149.333,36.99,147.583,33.687,144.646,31.698z"/>
	<path d="M394.667,0c-50.688,0-166.958,13.167-214.583,18.823c-5.375,0.635-9.417,5.188-9.417,10.594v197.167
		c0,5.406,4.042,9.958,9.417,10.594C227.708,242.833,343.979,256,394.667,256c73.813,0,74.667-122.771,74.667-128
		C469.333,122.771,468.479,0,394.667,0z M394.667,192h-64c-5.896,0-10.667-4.771-10.667-10.667
		c0-5.896,4.771-10.667,10.667-10.667h64c5.896,0,10.667,4.771,10.667,10.667C405.333,187.229,400.563,192,394.667,192z
			M394.667,138.667h-64c-5.896,0-10.667-4.771-10.667-10.667c0-5.896,4.771-10.667,10.667-10.667h64
		c5.896,0,10.667,4.771,10.667,10.667C405.333,133.896,400.563,138.667,394.667,138.667z M394.667,85.333h-64
		c-5.896,0-10.667-4.771-10.667-10.667S324.771,64,330.667,64h64c5.896,0,10.667,4.771,10.667,10.667
		S400.563,85.333,394.667,85.333z"/>
	<path d="M384.333,277.177c-29.521-0.75-75.917-4.479-137.875-11.052c-2.958-0.292-6,0.646-8.25,2.677
		c-2.25,2.021-3.542,4.906-3.542,7.927v149.938c0,23.531,19.146,42.667,42.667,42.667h13.104
		c22.125,0,42.188-13.917,49.917-34.604l53.688-143.135c1.229-3.24,0.792-6.854-1.125-9.708
		C390.979,279.021,387.792,277.271,384.333,277.177z"/>
</g>
</svg>
