<svg id="Layer_1" enable-background="new 0 0 512 512" height="512" viewBox="0 0 512 512" width="512" xmlns="http://www.w3.org/2000/svg"><path d="m464.866 192.8h-17.133v-45.372c0-47.963-18.679-93.054-52.593-126.964l-16.065-16.068c-2.812-2.815-6.629-4.396-10.607-4.396-.001 0-.001 0-.001 0-3.979 0-7.795 1.581-10.607 4.395l-16.064 16.068c-33.917 33.911-52.596 79.002-52.596 126.965v45.372h-85.704c2.082-5.315 3.238-11.09 3.238-17.133 0-17.033-9.083-31.983-22.658-40.265 4.181-7.035 6.591-15.241 6.591-24.001s-2.41-16.966-6.591-24.001c13.575-8.283 22.658-23.233 22.658-40.265-.001-25.991-21.145-47.135-47.134-47.135h-96.4c-25.754 0-47.134 20.804-47.134 47.133 0 8.753 2.406 16.95 6.58 23.981-12.781 7.803-22.646 22.264-22.646 40.286 0 17.02 9.07 31.961 22.629 40.247-4.277 7.193-6.563 15.429-6.563 24.02 0 6.044 1.156 11.819 3.238 17.133h-4.304c-8.284 0-15 6.716-15 15v64.267c0 8.284 6.716 15 15 15h154.454l65.333 65.333-133.993 133.993c-5.858 5.858-5.858 15.355 0 21.213 5.857 5.858 15.355 5.858 21.213 0l133.993-133.993 133.993 133.994c5.857 5.858 15.355 5.858 21.213 0s5.858-15.355 0-21.213l-133.993-133.994 65.333-65.333h122.321c25.756 0 47.134-20.806 47.134-47.134-.001-25.807-20.856-47.133-47.135-47.133zm-145.666-45.372c0-39.949 15.558-77.505 43.808-105.752l5.459-5.46 5.461 5.462c28.248 28.245 43.806 65.801 43.806 105.75v45.372h-98.534zm-256-117.428h96.4c9.447 0 17.134 7.686 17.134 17.133s-7.687 17.133-17.134 17.133h-96.4c-9.447 0-17.134-7.686-17.134-17.133 0-9.459 7.658-17.133 17.134-17.133zm113.533 145.667c0 9.447-7.687 17.133-17.134 17.133h-96.399c-9.447 0-17.134-7.686-17.134-17.133 0-9.46 7.658-17.133 17.134-17.133h96.4c9.447-.001 17.133 7.685 17.133 17.133zm-129.599-81.4h96.399c9.447 0 17.134 7.686 17.134 17.133s-7.687 17.133-17.134 17.133h-96.399c-9.447 0-17.134-7.686-17.134-17.133 0-9.459 7.657-17.133 17.134-17.133zm208.866 236.92-44.12-44.12h88.24zm208.866-74.12h-434.866v-34.267h434.866c9.438 0 17.134 7.638 17.134 17.133 0 9.46-7.657 17.134-17.134 17.134z"/></svg>