<svg id="Capa_1" enable-background="new 0 0 512 512" height="512" viewBox="0 0 512 512" width="512" xmlns="http://www.w3.org/2000/svg"><g><path d="m229.015 345c0 8.271 6.729 15 15 15s15-6.729 15-15v-14h-30z"/><path d="m79.015 497c0 8.284 6.716 15 15 15h300c8.284 0 15-6.716 15-15v-45h-330z"/><path d="m229.015 270h30v31h-30z"/><path d="m244.015 210c-8.271 0-15 6.729-15 15v15h30v-15c0-8.271-6.729-15-15-15z"/><path d="m259.015 30.686v-15.686c0-8.284-6.716-15-15-15s-15 6.716-15 15v15.688c-28.171 2.558-55.805 12.328-79.87 29.312h189.74c-24.07-16.994-51.703-26.76-79.87-29.314z"/><path d="m419.006 90h-386c-11.19 0-18.37 11.79-13.42 21.71l59.429 118.857v191.433h330.991v-227c0-26.99-6.51-52.49-18.05-75h27.05c24.81 0 45 20.19 45 45v120c0 8.28 6.72 15 15 15s15-6.72 15-15v-120c0-41.36-33.65-75-75-75zm-129.991 255c0 24.81-20.19 45-45 45s-45-20.19-45-45v-120c0-24.81 20.19-45 45-45s45 20.19 45 45z"/></g></svg>