<svg height="512" viewBox="0 0 50 60" width="512" xmlns="http://www.w3.org/2000/svg"><g id="Page-1" fill="none" fill-rule="evenodd"><g id="019---Fridge-Beers" fill="currentColor" fill-rule="nonzero"><path id="Shape" d="m2 33.184c-1.19435086.4222546-1.99474861 1.5492146-2 2.816v7c.00525139 1.2667854.80564914 2.3937454 2 2.816v7.184c.00525139 1.2667854.80564913 2.3937454 2 2.816v1.184c0 1.6568542 1.34314575 3 3 3h6c1.6568542 0 3-1.3431458 3-3v-1h20v1c0 1.6568542 1.3431458 3 3 3h6c1.6568542 0 3-1.3431458 3-3v-1.184c1.1943509-.4222546 1.9947486-1.5492146 2-2.816v-50c0-1.65685425-1.3431458-3-3-3h-42c-1.65685425 0-3 1.34314575-3 3v6.184c-1.19435086.42225455-1.99474861 1.5492146-2 2.816v7c.00525139 1.2667854.80564914 2.3937454 2 2.816zm0 2.816c0-.5522847.44771525-1 1-1s1 .4477153 1 1v7c0 .5522847-.44771525 1-1 1s-1-.4477153-1-1zm12 21c0 .5522847-.4477153 1-1 1h-6c-.55228475 0-1-.4477153-1-1v-1h8zm32 0c0 .5522847-.4477153 1-1 1h-6c-.5522847 0-1-.4477153-1-1v-1h8zm-41-55h42c.5522847 0 1 .44771525 1 1v50c0 .5522847-.4477153 1-1 1h-42c-.55228475 0-1-.4477153-1-1v-7.184c1.19435087-.4222546 1.99474861-1.5492146 2-2.816v-7c-.00525139-1.2667854-.80564913-2.3937454-2-2.816v-11.368c1.19435087-.4222546 1.99474861-1.5492146 2-2.816v-7c-.00525139-1.2667854-.80564913-2.39374545-2-2.816v-6.184c0-.55228475.44771525-1 1-1zm-3 10c0-.5522847.44771525-1 1-1s1 .4477153 1 1v7c0 .5522847-.44771525 1-1 1s-1-.4477153-1-1z"/><path id="Shape"  d="m9 46c.00330612 2.7600532 2.2399468 4.9966939 5 5h26c2.7600532-.0033061 4.9966939-2.2399468 5-5v-36c-.0033061-2.76005315-2.2399468-4.99669388-5-5h-26c-2.7600532.00330612-4.99669388 2.23994685-5 5zm5-39h26c1.6568542 0 3 1.34314575 3 3v36c0 1.6568542-1.3431458 3-3 3h-26c-1.6568542 0-3-1.3431458-3-3v-36c0-1.65685425 1.3431458-3 3-3z"/><path id="Shape" d="m37 29c-1.6568542 0-3 1.3431458-3 3v2.056c-.0004106.464964-.1082125.92355-.315 1.34l-.158.312c-.3452147.6949127-.5255525 1.4600653-.527 2.236v5.056c.0033144.3414397.0655622.679743.184 1h-2.368c.1184378-.320257.1806856-.6585603.184-1v-5.056c-.0015227-.7766811-.182208-1.5425406-.528-2.238l-.156-.308c-.207331-.417009-.3154785-.8762937-.316-1.342v-2.056c0-1.6568542-1.3431458-3-3-3s-3 1.3431458-3 3v2.056c-.0004106.464964-.1082125.92355-.315 1.34l-.158.312c-.3452147.6949127-.5255525 1.4600653-.527 2.236v5.056c.0033144.3414397.0655622.679743.184 1h-2.368c.1184378-.320257.1806856-.6585603.184-1v-5.056c-.0015227-.7766811-.182208-1.5425406-.528-2.238l-.156-.308c-.207331-.417009-.3154785-.8762937-.316-1.342v-2.056c0-1.6568542-1.3431458-3-3-3s-3 1.3431458-3 3v2.056c-.0004106.464964-.1082125.92355-.315 1.34l-.158.312c-.3452147.6949127-.5255525 1.4600653-.527 2.236v5.056c.0033144.3414397.0655622.679743.184 1h-.184c-.5522847 0-1 .4477153-1 1s.4477153 1 1 1h28c.5522847 0 1-.4477153 1-1s-.4477153-1-1-1h-.184c.1184378-.320257.1806856-.6585603.184-1v-5.056c-.0015227-.7766811-.182208-1.5425406-.528-2.238l-.156-.308c-.207331-.417009-.3154785-.8762937-.316-1.342v-2.056c0-1.6568542-1.3431458-3-3-3zm-21 15c-.5522847 0-1-.4477153-1-1v-5.056c.0004106-.464964.1082125-.92355.315-1.34l.158-.312c.3452147-.6949127.5255525-1.4600653.527-2.236v-2.056c0-.5522847.4477153-1 1-1s1 .4477153 1 1v2.056c.0015227.7766811.182208 1.5425406.528 2.238l.156.308c.207331.417009.3154785.8762937.316 1.342v5.056c0 .5522847-.4477153 1-1 1zm10 0c-.5522847 0-1-.4477153-1-1v-5.056c.0004106-.464964.1082125-.92355.315-1.34l.158-.312c.3452147-.6949127.5255525-1.4600653.527-2.236v-2.056c0-.5522847.4477153-1 1-1s1 .4477153 1 1v2.056c.0015227.7766811.182208 1.5425406.528 2.238l.156.308c.207331.417009.3154785.8762937.316 1.342v5.056c0 .5522847-.4477153 1-1 1zm10 0c-.5522847 0-1-.4477153-1-1v-5.056c.0004106-.464964.1082125-.92355.315-1.34l.158-.312c.3452147-.6949127.5255525-1.4600653.527-2.236v-2.056c0-.5522847.4477153-1 1-1s1 .4477153 1 1v2.056c.0015227.7766811.182208 1.5425406.528 2.238l.156.308c.207331.417009.3154785.8762937.316 1.342v5.056c0 .5522847-.4477153 1-1 1z"/><path id="Shape" d="m13 27h28c.5522847 0 1-.4477153 1-1s-.4477153-1-1-1h-.184c.1184378-.320257.1806856-.6585603.184-1v-5.056c-.0015227-.7766811-.182208-1.5425406-.528-2.238l-.156-.308c-.207331-.417009-.3154785-.8762937-.316-1.342v-2.056c0-1.6568542-1.3431458-3-3-3s-3 1.3431458-3 3v2.056c-.0004106.464964-.1082125.92355-.315 1.34l-.158.312c-.3452147.6949127-.5255525 1.4600653-.527 2.236v5.056c.0033144.3414397.0655622.679743.184 1h-2.368c.1184378-.320257.1806856-.6585603.184-1v-5.056c-.0015227-.7766811-.182208-1.5425406-.528-2.238l-.156-.308c-.207331-.417009-.3154785-.8762937-.316-1.342v-2.056c0-1.6568542-1.3431458-3-3-3s-3 1.3431458-3 3v2.056c-.0004106.464964-.1082125.92355-.315 1.34l-.158.312c-.3452147.6949127-.5255525 1.4600653-.527 2.236v5.056c.0033144.3414397.0655622.679743.184 1h-2.368c.1184378-.320257.1806856-.6585603.184-1v-5.056c-.0015227-.7766811-.182208-1.5425406-.528-2.238l-.156-.308c-.207331-.417009-.3154785-.8762937-.316-1.342v-2.056c0-1.6568542-1.3431458-3-3-3s-3 1.3431458-3 3v2.056c-.0004106.464964-.1082125.92355-.315 1.34l-.158.312c-.3452147.6949127-.5255525 1.4600653-.527 2.236v5.056c.0033144.3414397.0655622.679743.184 1h-.184c-.5522847 0-1 .4477153-1 1s.4477153 1 1 1zm22-3v-5.056c.0004106-.464964.1082125-.92355.315-1.34l.158-.312c.3452147-.6949127.5255525-1.4600653.527-2.236v-2.056c0-.5522847.4477153-1 1-1s1 .4477153 1 1v2.056c.0015227.7766811.182208 1.5425406.528 2.238l.156.308c.207331.417009.3154785.8762937.316 1.342v5.056c0 .5522847-.4477153 1-1 1h-2c-.5522847 0-1-.4477153-1-1zm-10 0v-5.056c.0004106-.464964.1082125-.92355.315-1.34l.158-.312c.3452147-.6949127.5255525-1.4600653.527-2.236v-2.056c0-.5522847.4477153-1 1-1s1 .4477153 1 1v2.056c.0015227.7766811.182208 1.5425406.528 2.238l.156.308c.207331.417009.3154785.8762937.316 1.342v5.056c0 .5522847-.4477153 1-1 1h-2c-.5522847 0-1-.4477153-1-1zm-10 0v-5.056c.0004106-.464964.1082125-.92355.315-1.34l.158-.312c.3452147-.6949127.5255525-1.4600653.527-2.236v-2.056c0-.5522847.4477153-1 1-1s1 .4477153 1 1v2.056c.0015227.7766811.182208 1.5425406.528 2.238l.156.308c.207331.417009.3154785.8762937.316 1.342v5.056c0 .5522847-.4477153 1-1 1h-2c-.5522847 0-1-.4477153-1-1z"/></g></g></svg>