<svg enable-background="new 0 0 512.002 512.002" height="512" viewBox="0 0 512.002 512.002" width="512" xmlns="http://www.w3.org/2000/svg"><g><path d="m205.023 269.002h-136.5c-10.545 0-19.125 8.579-19.125 19.125s8.58 19.125 19.125 19.125h136.5c10.545 0 19.125-8.579 19.125-19.125s-8.579-19.125-19.125-19.125z"/><path d="m99.179 0h75.188v34.252h-75.188z"/><path d="m210.333 405.502h-147.12c-7.618 0-13.815 6.197-13.815 13.815v92.685h174.75v-92.685c0-7.618-6.198-13.815-13.815-13.815z"/><path d="m205.023 200.752h-136.5c-10.545 0-19.125 8.579-19.125 19.125s8.58 19.125 19.125 19.125h136.5c10.545 0 19.125-8.579 19.125-19.125s-8.579-19.125-19.125-19.125z"/><path d="m205.023 337.252h-136.5c-10.545 0-19.125 8.579-19.125 19.125s8.58 19.125 19.125 19.125h136.5c10.545 0 19.125-8.579 19.125-19.125s-8.579-19.125-19.125-19.125z"/><path d="m100.164 64.252-50.766 48.091v48.126c0 5.67 4.613 10.283 10.283 10.283h154.184c5.67 0 10.283-4.613 10.283-10.283v-48.126l-50.766-48.091z"/><path d="m293.064 512h142.287l20.485-233.267h-183.257z"/><path d="m265.811 201.667 4.134 47.066h188.526l4.133-47.066z"/></g></svg>