<svg width="512" height="512" version="1.1" viewBox="0 0 135.47 135.47" xmlns="http://www.w3.org/2000/svg" >
 
 <g>
  <g fill="none" stroke="currentColor">
   <rect x="52.205" y="58.802" width="66.644" height="43.445" ry="6.0702" stroke-linecap="round" stroke-width="4.695"/>
   <path d="m62.582 85.912h28.967" stroke-linecap="round" stroke-width="3.3069"/>
   <path d="m52.205 73.384 66.644 4e-6" stroke-width="10.861"/>
  </g>
  <path transform="scale(.26458)" d="m298.38 150.61c-0.47478-0.00703-0.95037-0.00712-1.4258 0.00195-69.17 0.24775-138.34-0.06683-207.51 0.16992-16.219 1.1922-29.672 17.105-27.898 33.326-0.03961 39.703-0.29364 79.414 0.10352 119.11 1.245 15.885 16.674 28.84 32.51 27.664 26.392-0.04499 52.783-0.03208 79.176-0.01954-0.12899-17.41-0.00701-34.825 0.0586-52.238h-72.344c-2.6329 0-4.7539-2.121-4.7539-4.7539v-0.35157c0-2.6328 2.1211-4.752 4.7539-4.752h72.373c0.01047-5.9675 0.01177-11.934-0.01954-17.9-1.4771-12.331 2.4592-25.006 10.199-34.654 7.2231-9.1869 18.095-16.12 30.039-17.539 38.537-0.33753 77.08-0.40188 115.62-0.41992-0.02576-6.6238-0.04673-13.248-0.08789-19.871-1.286-14.776-14.565-27.24-29.371-27.727-0.47486-0.02526-0.94905-0.03985-1.4238-0.04687zm-197.95 47.982h36.764c2.9679 0 5.3574 2.3896 5.3574 5.3574v24.137c0 2.9679-2.3896 5.3574-5.3574 5.3574h-36.764c-2.9679 0-5.3574-2.3896-5.3574-5.3574v-24.137c0-2.9678 2.3896-5.3574 5.3574-5.3574z" fill="currentColor"/>
 </g>
</svg>
