<?xml version="1.0" encoding="UTF-8" standalone="no"?>
<!DOCTYPE svg PUBLIC "-//W3C//DTD SVG 20010904//EN"
              "http://www.w3.org/TR/2001/REC-SVG-20010904/DTD/svg10.dtd">

<svg xmlns="http://www.w3.org/2000/svg"
     width="5.68889in" height="5.68889in"
     viewBox="0 0 512 512">
  <path id="magnifier"
        fill="current" stroke="current" stroke-width="1"
        d="M 310.00,177.42
           C 310.00,177.42 300.00,178.46 300.00,178.46
             283.06,181.45 266.21,189.99 254.37,202.58
             219.73,239.42 226.29,299.72 268.58,327.86
             284.60,338.51 305.04,343.08 324.00,340.72
             332.35,339.68 336.15,338.71 344.00,335.60
             347.05,334.39 350.76,332.23 354.00,333.81
             356.42,334.99 364.57,343.56 367.00,346.00
             367.00,346.00 396.00,375.00 396.00,375.00
             401.69,380.69 407.91,389.27 417.00,387.52
             427.42,385.51 445.38,367.64 441.11,356.00
             439.46,351.49 431.52,343.53 428.00,340.00
             428.00,340.00 401.00,313.00 401.00,313.00
             398.50,310.50 388.31,300.97 387.49,298.42
             386.74,296.05 390.52,288.73 391.46,286.00
             393.98,278.71 394.97,268.73 395.26,261.00
             396.63,223.51 372.77,191.34 337.00,180.72
             329.93,178.62 317.22,176.61 310.00,177.42 Z
           M 307.00,213.30
           C 329.22,211.09 349.37,221.51 357.53,243.00
             358.78,246.28 358.93,248.61 359.42,252.00
             362.83,275.70 348.67,300.52 324.00,304.68
             315.58,306.10 306.14,306.20 298.00,303.30
             287.11,299.43 274.90,287.73 270.67,277.00
             268.99,272.72 268.06,265.62 268.00,261.00
             267.93,254.71 268.57,246.80 271.09,241.00
             277.69,225.86 291.03,216.28 307.00,213.30 Z" />
  <path id="item"
        fill="current" stroke="current" stroke-width="1"
        d="M 348.00,346.00
           C 348.00,346.00 348.00,374.00 348.00,374.00
             347.98,388.76 339.12,398.93 324.00,399.00
             324.00,399.00 165.00,399.00 165.00,399.00
             161.97,399.00 158.91,399.12 156.00,398.15
             146.34,394.93 139.14,385.06 139.00,375.00
             139.00,375.00 139.00,348.00 139.00,348.00
             139.00,348.00 139.00,178.00 139.00,178.00
             139.00,178.00 162.00,178.00 162.00,178.00
             177.76,178.00 197.10,178.73 205.33,162.00
             210.41,151.68 209.00,131.77 209.00,120.00
             209.00,120.00 324.00,120.00 324.00,120.00
             327.15,120.01 329.99,119.85 333.00,120.99
             351.99,128.22 347.97,148.92 348.00,165.00
             348.00,167.09 347.74,170.59 348.99,172.32
             350.12,173.87 354.17,175.57 356.00,176.58
             356.00,176.58 372.00,186.00 372.00,186.00
             372.00,186.00 372.00,150.00 372.00,150.00
             372.00,141.00 372.46,132.52 368.79,124.00
             366.12,117.79 360.02,110.64 355.00,106.17
             351.01,102.63 347.89,100.87 343.00,98.86
             336.85,96.35 333.51,96.01 327.00,96.00
             327.00,96.00 210.00,96.00 210.00,96.00
             188.11,96.04 164.40,116.00 148.72,129.74
             131.99,144.40 115.04,161.45 115.00,185.00
             115.00,185.00 115.00,359.00 115.00,359.00
             115.00,359.00 116.00,378.00 116.00,378.00
             116.20,394.53 123.86,407.49 138.00,416.25
             140.75,417.95 145.91,420.58 149.00,421.39
             157.17,423.54 186.89,423.00 197.00,423.00
             197.00,423.00 323.00,423.00 323.00,423.00
             327.31,422.99 336.04,422.36 340.00,421.09
             357.86,415.34 371.31,397.66 372.15,379.00
             372.07,376.71 372.81,370.65 372.15,369.00
             371.26,365.50 363.83,358.83 361.00,356.00
             356.80,351.80 353.83,347.71 348.00,346.00 Z" />
</svg>
