<svg width="512" height="512" version="1.1" viewBox="0 0 135.47 135.47" xmlns="http://www.w3.org/2000/svg" >
 
  <g transform="matrix(1.1039 0 0 1.1039 -7.5876 1.6983)" stroke="currentColor" stroke-width="4">
   <g stroke-linecap="round">
    <rect x="8.9278" y="70.404" width="51.692" height="12.891" ry="1.4392" fill="none"/>
    <rect x="13.784" y="36.344" width="42.629" height="14.566" ry="1.4392" fill="none"/>
    <rect x="20.203" y="44.115" width="29.671" height="12.284" ry="1.4174"/>
   </g>
   <path d="m56.414 50.91 4.2059 19.494h-51.692l4.8567-19.494h42.629" fill="none" stroke-linejoin="round"/>
  </g>
 
 <g transform="matrix(1.1039 0 0 1.1039 -7.5876 1.6983)" fill="currentColor">
  <path d="m114.23 72.8c-13.121 0.0029-26.243-0.01226-39.364 0.0176-1.3319 0.32642-1.354 1.9923-1.2237 3.0893 0.09178 2.7462-0.19331 5.5366 0.22505 8.2526 0.8816 1.2184 2.5659 0.68965 3.8372 0.76991 16.85-3e-3 33.701 0.01176 50.551-0.0264 1.2872-0.30929 1.3693-1.9129 1.2315-2.9833-0.0515-2.7563 0.11911-5.5335-0.16463-8.275-0.67765-1.1944-2.288-0.79365-3.4197-0.86425-3.8909 0.0065-7.7818 0.01303-11.673 0.01954z" style="paint-order:stroke fill markers"/>
  <path transform="scale(.26458)" d="m311.73 194.75c-5.8986-0.0133-12.462 0.49304-14.047 3.2832-3.0903 6.5232-3.5095 11.063-5.752 17.875-3.6178 15.303-8.0834 25.745-10.865 41.201 1.2315 4.5742 6.8989 5.0217 10.826 4.4824 31.77-0.0637 60.197-0.049 91.967-0.0508 31.77 2e-3 60.197-0.0129 91.967 0.0508 3.9273 0.53929 9.5947 0.0918 10.826-4.4824-2.7818-15.456-7.2474-25.898-10.865-41.201-2.2424-6.8118-2.6636-11.352-5.7539-17.875-2.5352-4.4643-17.812-3.0801-22.727-3.0801-4.1075 0.7812-2.966 3.958-3.9707 16.105-3.0033 8.207-8.2335 7.7217-14.896 8.1035-14.801 0-28.618-0.0498-44.562-0.0996-15.944 0.0498-29.796 0.0996-44.598 0.0996-6.663-0.38186-11.893 0.10347-14.896-8.1035-1.0048-12.147 0.1369-15.324-3.9707-16.105-1.843 0-5.1425-0.19514-8.6816-0.20313z" style="paint-order:stroke fill markers"/>
  <path d="m101.56 34.444c-6.9345 0.0032-13.68 0.0088-19.765 0.04031h-1.866c-1.2833 0.35884-1.2926 1.9816-1.1606 3.0582 0.07754 3.3716-0.20079 6.7832 0.20825 10.127 0.20219 0.98276 4.284 0.85228 5.4224 0.8015 1.0691-0.26975 0.9094-0.96808 1.0206-1.9823-0.49426-2.7277 1.755-3.8894 2.5451-3.9259 4.3209-0.09379 10.106-0.03732 13.589-0.03721h0.0129c3.483-1.14e-4 9.2675-0.05658 13.588 0.03721 0.79003 0.03648 3.0393 1.1982 2.5451 3.9259 0.11122 1.0142-0.0485 1.7126 1.0206 1.9823 1.1384 0.05078 5.2207 0.18126 5.4229-0.8015 0.40904-3.3438 0.13024-6.7554 0.20774-10.127 0.13198-1.0766 0.12314-2.6994-1.1601-3.0582h-1.8666c-6.0849-0.03152-12.83-0.03711-19.765-0.04031z" style="paint-order:stroke fill markers"/>
 </g>
</svg>
