<svg
  id="bilyar-palace-logo"
  xmlns="http://www.w3.org/2000/svg"
  width="37.0667in"
  height="20.5778in"
  viewBox="0 0 3336 1852"
>
        <path
    id="stars"
    fill="none"
    stroke="#ffff00"
    stroke-width="1"
    d="M 1425.00,1051.00
     C 1412.84,1064.38 1408.32,1083.49 1406.00,1101.00
       1406.00,1101.00 1347.00,1101.00 1347.00,1101.00
       1349.66,1114.05 1365.74,1122.21 1376.00,1129.00
       1379.99,1131.65 1386.29,1135.50 1388.15,1140.01
       1390.03,1144.60 1387.45,1152.36 1386.14,1157.00
       1386.14,1157.00 1374.00,1196.00 1374.00,1196.00
       1380.67,1193.45 1401.91,1177.69 1409.00,1172.58
       1411.54,1170.74 1419.44,1164.06 1422.00,1163.94
       1425.12,1163.80 1433.30,1171.24 1436.00,1173.40
       1445.28,1180.82 1456.73,1190.89 1469.00,1192.00
       1468.07,1180.59 1462.92,1165.88 1458.95,1155.00
       1457.74,1151.69 1453.80,1142.34 1455.20,1139.21
       1456.49,1136.34 1467.77,1130.75 1471.00,1128.80
       1482.33,1121.95 1492.81,1114.58 1496.00,1101.00
       1496.00,1101.00 1450.00,1101.00 1450.00,1101.00
       1440.83,1100.98 1440.56,1100.37 1436.00,1087.00
       1436.00,1087.00 1428.88,1064.00 1428.88,1064.00
       1427.85,1059.63 1427.73,1054.65 1425.00,1051.00 Z
     M 1577.00,1051.00
     C 1565.79,1060.29 1569.41,1061.96 1565.48,1074.00
       1562.04,1084.55 1558.98,1088.98 1558.00,1101.00
       1558.00,1101.00 1499.00,1101.00 1499.00,1101.00
       1499.57,1104.05 1500.12,1106.23 1501.97,1108.83
       1505.41,1113.67 1523.28,1126.52 1529.00,1130.33
       1532.54,1132.69 1540.27,1137.19 1541.81,1141.01
       1543.20,1144.49 1539.25,1153.24 1538.00,1157.00
       1533.70,1169.88 1529.68,1182.67 1527.00,1196.00
       1533.93,1193.31 1552.85,1177.99 1560.00,1172.63
       1562.85,1170.49 1570.80,1163.73 1574.00,1163.69
       1577.39,1163.65 1585.08,1170.20 1588.00,1172.37
       1597.11,1179.14 1610.93,1190.99 1622.00,1192.00
       1620.03,1177.43 1615.61,1167.54 1611.00,1154.00
       1609.93,1150.87 1605.85,1142.19 1607.20,1139.39
       1608.25,1137.23 1615.51,1133.95 1618.00,1132.23
       1618.00,1132.23 1633.00,1120.88 1633.00,1120.88
       1642.19,1114.12 1647.26,1113.25 1649.00,1101.00
       1649.00,1101.00 1602.00,1101.00 1602.00,1101.00
       1592.54,1100.98 1592.02,1099.51 1588.14,1086.00
       1588.14,1086.00 1581.88,1064.00 1581.88,1064.00
       1580.69,1059.47 1579.98,1054.70 1577.00,1051.00 Z
     M 1730.00,1051.00
     C 1717.84,1064.38 1713.32,1083.49 1711.00,1101.00
       1711.00,1101.00 1652.00,1101.00 1652.00,1101.00
       1654.66,1114.05 1670.74,1122.21 1681.00,1129.00
       1684.99,1131.65 1691.29,1135.50 1693.15,1140.01
       1695.03,1144.60 1692.45,1152.36 1691.14,1157.00
       1691.14,1157.00 1679.00,1196.00 1679.00,1196.00
       1685.67,1193.45 1706.91,1177.69 1714.00,1172.58
       1716.54,1170.74 1724.44,1164.06 1727.00,1163.94
       1730.12,1163.80 1738.30,1171.24 1741.00,1173.40
       1750.28,1180.82 1761.73,1190.89 1774.00,1192.00
       1773.07,1180.59 1767.92,1165.88 1763.95,1155.00
       1762.74,1151.69 1758.80,1142.34 1760.20,1139.21
       1761.49,1136.34 1772.77,1130.75 1776.00,1128.80
       1787.33,1121.95 1797.81,1114.58 1801.00,1101.00
       1801.00,1101.00 1755.00,1101.00 1755.00,1101.00
       1745.83,1100.98 1745.56,1100.37 1741.00,1087.00
       1741.00,1087.00 1733.88,1064.00 1733.88,1064.00
       1732.85,1059.63 1732.73,1054.65 1730.00,1051.00 Z
     M 1882.00,1051.00
     C 1870.79,1060.29 1874.41,1061.96 1870.48,1074.00
       1867.04,1084.55 1863.98,1088.98 1863.00,1101.00
       1863.00,1101.00 1804.00,1101.00 1804.00,1101.00
       1804.57,1104.05 1805.12,1106.23 1806.97,1108.83
       1810.41,1113.67 1828.28,1126.52 1834.00,1130.33
       1837.54,1132.69 1845.27,1137.19 1846.81,1141.01
       1848.20,1144.49 1844.25,1153.24 1843.00,1157.00
       1838.70,1169.88 1834.68,1182.67 1832.00,1196.00
       1838.93,1193.31 1857.85,1177.99 1865.00,1172.63
       1867.85,1170.49 1875.80,1163.73 1879.00,1163.69
       1882.39,1163.65 1890.08,1170.20 1893.00,1172.37
       1902.11,1179.14 1915.93,1190.99 1927.00,1192.00
       1925.03,1177.43 1920.61,1167.54 1916.00,1154.00
       1914.93,1150.87 1910.85,1142.19 1912.20,1139.39
       1913.25,1137.23 1920.51,1133.95 1923.00,1132.23
       1923.00,1132.23 1938.00,1120.88 1938.00,1120.88
       1947.19,1114.12 1952.26,1113.25 1954.00,1101.00
       1954.00,1101.00 1907.00,1101.00 1907.00,1101.00
       1897.54,1100.98 1897.02,1099.51 1893.14,1086.00
       1893.14,1086.00 1886.88,1064.00 1886.88,1064.00
       1885.69,1059.47 1884.98,1054.70 1882.00,1051.00 Z"
  />

        <path
    id="BP"
    fill="none"
    stroke="white"
    stroke-width="1"
    d="M 1793.00,673.00
           C 1797.52,648.96 1807.52,624.03 1815.95,601.00
             1828.89,565.62 1841.58,530.27 1851.86,494.00
             1856.63,477.16 1864.80,444.86 1865.00,428.00
             1865.00,428.00 1865.00,421.00 1865.00,421.00
             1864.99,412.96 1864.06,400.68 1854.00,399.21
             1851.68,398.88 1849.11,399.12 1847.00,400.17
             1845.14,401.10 1843.50,402.61 1842.01,404.04
             1832.03,413.64 1816.75,441.78 1810.86,455.00
             1810.86,455.00 1787.42,507.00 1787.42,507.00
             1787.42,507.00 1754.20,590.00 1754.20,590.00
             1754.20,590.00 1732.42,647.00 1732.42,647.00
             1728.79,656.55 1723.54,671.51 1716.82,678.99
             1711.27,685.15 1687.49,698.25 1679.00,703.00
             1681.95,715.38 1695.58,727.86 1694.90,742.00
             1694.52,749.75 1688.73,764.47 1685.81,772.00
             1685.81,772.00 1665.00,826.00 1665.00,826.00
             1661.89,835.33 1658.12,846.12 1658.00,856.00
             1657.98,858.51 1657.89,862.67 1658.57,865.00
             1661.37,874.63 1672.54,871.99 1680.00,870.87
             1693.23,868.87 1712.97,861.25 1725.00,855.25
             1728.68,853.41 1739.10,848.29 1741.40,845.47
             1743.84,842.48 1742.57,838.46 1742.15,835.00
             1741.16,826.70 1738.77,820.41 1740.45,812.00
             1740.45,812.00 1757.95,758.00 1757.95,758.00
             1762.81,744.97 1768.93,728.81 1779.01,719.04
             1789.94,708.47 1808.68,706.51 1823.00,703.12
             1847.39,697.33 1872.09,689.34 1895.00,679.14
             1924.09,666.19 1944.12,648.71 1964.00,624.00
             1992.89,588.08 2011.43,547.14 2015.96,501.00
             2015.96,501.00 2015.96,492.00 2015.96,492.00
             2015.96,492.00 2016.96,484.00 2016.96,484.00
             2016.96,484.00 2015.96,473.00 2015.96,473.00
             2015.96,473.00 2015.96,463.00 2015.96,463.00
             2014.96,453.93 2013.09,444.82 2010.87,436.00
             2007.45,422.36 2002.23,409.22 1995.28,397.00
             1988.49,385.06 1981.30,375.07 1971.91,365.00
             1934.04,324.36 1877.52,308.18 1824.00,302.83
             1824.00,302.83 1799.00,301.00 1799.00,301.00
             1799.00,301.00 1778.00,301.00 1778.00,301.00
             1752.65,301.04 1723.93,309.02 1700.00,317.00
             1672.44,326.20 1638.00,343.28 1613.00,358.20
             1596.33,368.15 1577.43,376.74 1571.75,397.00
             1569.75,404.12 1569.92,408.76 1570.00,416.00
             1570.17,429.50 1580.71,441.98 1595.00,437.15
             1598.91,435.83 1602.13,432.88 1604.96,429.99
             1604.96,429.99 1622.30,407.00 1622.30,407.00
             1632.37,395.23 1644.94,387.07 1659.00,380.86
             1676.92,372.94 1710.43,365.23 1730.00,365.00
             1730.00,365.00 1747.00,364.00 1747.00,364.00
             1747.00,364.00 1752.00,364.00 1752.00,364.00
             1752.00,364.00 1769.00,365.00 1769.00,365.00
             1769.00,365.00 1779.00,365.92 1779.00,365.92
             1808.90,368.31 1843.19,377.32 1870.00,390.75
             1903.79,407.69 1935.94,438.65 1936.00,479.00
             1936.00,479.00 1936.00,503.00 1936.00,503.00
             1935.96,527.02 1923.80,555.66 1911.60,576.00
             1889.51,612.81 1856.07,649.44 1816.00,666.57
             1806.53,670.62 1802.28,670.66 1793.00,673.00 Z
           M 1560.00,660.00
           C 1581.36,631.77 1619.77,620.43 1642.31,585.00
             1647.44,576.92 1651.59,567.33 1653.77,558.00
             1656.71,545.39 1658.68,529.41 1654.30,517.00
             1648.57,500.77 1634.81,490.28 1620.00,482.76
             1596.10,470.61 1559.85,462.04 1533.00,462.00
             1533.00,462.00 1504.00,462.00 1504.00,462.00
             1504.00,462.00 1492.00,463.00 1492.00,463.00
             1492.00,463.00 1483.00,463.00 1483.00,463.00
             1483.00,463.00 1445.00,467.42 1445.00,467.42
             1393.27,475.46 1343.48,492.51 1296.00,514.31
             1296.00,514.31 1252.00,535.69 1252.00,535.69
             1240.29,541.07 1219.40,550.40 1210.04,558.46
             1193.98,572.29 1207.69,590.91 1226.00,589.96
             1234.72,589.50 1244.62,580.39 1252.00,575.69
             1260.83,570.08 1274.89,564.77 1285.00,561.72
             1316.77,552.15 1349.25,545.66 1382.00,540.58
             1405.57,536.92 1430.16,533.28 1454.00,533.00
             1454.00,533.00 1469.00,532.00 1469.00,532.00
             1495.30,531.96 1526.05,531.98 1551.00,541.05
             1565.55,546.34 1580.66,556.76 1579.96,574.00
             1579.37,588.58 1567.91,604.08 1558.00,614.00
             1535.18,636.81 1496.44,656.29 1479.00,672.17
             1472.70,677.91 1460.40,694.21 1467.51,702.79
             1471.93,708.13 1484.43,708.99 1491.00,709.00
             1491.00,709.00 1509.00,709.00 1509.00,709.00
             1537.43,709.00 1577.14,708.30 1589.54,740.00
             1591.40,744.75 1592.45,751.87 1592.82,757.00
             1593.04,760.17 1592.52,761.95 1592.15,765.00
             1590.09,782.26 1584.30,793.66 1572.00,806.00
             1550.94,827.12 1516.62,838.65 1487.00,839.00
             1465.83,839.24 1441.56,836.40 1424.00,823.51
             1415.14,817.01 1407.06,806.52 1407.18,795.00
             1407.23,790.43 1410.78,782.24 1412.78,778.00
             1412.78,778.00 1429.23,747.00 1429.23,747.00
             1429.23,747.00 1494.75,632.00 1494.75,632.00
             1503.87,613.89 1516.71,587.90 1519.57,568.00
             1521.57,554.06 1518.69,542.31 1502.00,543.04
             1490.56,543.54 1476.55,553.81 1468.00,560.92
             1457.72,569.47 1444.09,583.09 1436.44,594.00
             1429.65,603.69 1418.36,625.78 1412.75,637.00
             1388.57,685.37 1365.51,734.12 1344.58,784.00
             1344.58,784.00 1331.67,817.00 1331.67,817.00
             1328.42,826.65 1325.97,834.90 1329.71,845.00
             1333.52,855.31 1343.49,862.56 1353.00,867.24
             1367.04,874.17 1384.48,877.35 1400.00,878.96
             1400.00,878.96 1409.00,878.96 1409.00,878.96
             1409.00,878.96 1427.00,880.00 1427.00,880.00
             1427.00,880.00 1438.00,879.04 1438.00,879.04
             1505.00,876.12 1582.82,850.85 1632.00,804.04
             1632.00,804.04 1653.83,784.00 1653.83,784.00
             1668.39,768.06 1675.25,751.58 1675.00,730.00
             1674.46,684.15 1621.10,664.87 1583.00,661.17
             1583.00,661.17 1560.00,660.00 1560.00,660.00 Z"
  />

        <path
    id="arch"
    fill="none"
    stroke="white"
    stroke-width="1"
    d="M 1014.00,907.00
     C 1014.00,907.00 905.00,907.00 905.00,907.00
       905.00,907.00 905.00,954.00 905.00,954.00
       905.00,954.00 1079.00,954.00 1079.00,954.00
       1076.93,938.64 1060.80,891.86 1055.42,873.00
       1044.16,833.48 1039.72,802.63 1035.83,762.00
       1035.83,762.00 1033.96,739.00 1033.96,739.00
       1033.96,739.00 1033.96,723.00 1033.96,723.00
       1033.96,723.00 1033.00,713.00 1033.00,713.00
       1033.00,713.00 1033.00,709.00 1033.00,709.00
       1033.00,709.00 1033.96,699.00 1033.96,699.00
       1033.96,699.00 1033.96,685.00 1033.96,685.00
       1033.96,685.00 1034.91,673.00 1034.91,673.00
       1037.19,639.63 1042.23,606.25 1051.43,574.00
       1069.01,512.31 1096.97,457.01 1135.88,406.00
       1135.88,406.00 1165.58,370.00 1165.58,370.00
       1182.45,350.19 1199.94,330.84 1219.00,313.09
       1219.00,313.09 1234.00,299.83 1234.00,299.83
       1234.00,299.83 1246.00,288.61 1246.00,288.61
       1246.00,288.61 1274.00,267.58 1274.00,267.58
       1274.00,267.58 1330.00,229.42 1330.00,229.42
       1330.00,229.42 1383.00,199.14 1383.00,199.14
       1383.00,199.14 1452.00,161.74 1452.00,161.74
       1452.00,161.74 1510.00,131.26 1510.00,131.26
       1510.00,131.26 1589.00,91.75 1589.00,91.75
       1589.00,91.75 1604.00,83.75 1604.00,83.75
       1604.00,83.75 1640.00,63.40 1640.00,63.40
       1645.42,60.15 1654.64,54.35 1661.00,54.34
       1667.73,54.34 1677.98,59.75 1684.00,62.75
       1684.00,62.75 1724.00,83.75 1724.00,83.75
       1724.00,83.75 1755.00,99.75 1755.00,99.75
       1755.00,99.75 1881.00,164.69 1881.00,164.69
       1935.36,194.09 1990.33,224.82 2041.00,260.28
       2065.90,277.71 2090.99,295.99 2113.00,317.04
       2113.00,317.04 2130.70,335.00 2130.70,335.00
       2130.70,335.00 2149.15,358.00 2149.15,358.00
       2196.29,411.56 2226.79,453.78 2254.58,520.00
       2276.12,571.34 2289.62,630.42 2292.04,686.00
       2292.04,686.00 2293.00,699.00 2293.00,699.00
       2293.00,699.00 2293.00,732.00 2293.00,732.00
       2293.00,732.00 2292.04,745.00 2292.04,745.00
       2290.40,782.73 2283.59,819.30 2274.88,856.00
       2266.48,891.45 2258.60,920.01 2245.00,954.00
       2245.00,954.00 2430.00,954.00 2430.00,954.00
       2430.00,954.00 2430.00,907.00 2430.00,907.00
       2430.00,907.00 2313.00,907.00 2313.00,907.00
       2313.00,907.00 2321.42,871.00 2321.42,871.00
       2321.42,871.00 2332.42,818.00 2332.42,818.00
       2337.36,790.64 2341.19,763.71 2343.09,736.00
       2343.09,736.00 2344.00,726.00 2344.00,726.00
       2344.39,692.37 2343.77,665.44 2338.58,632.00
       2331.46,586.17 2314.03,528.11 2294.69,486.00
       2282.83,460.17 2268.04,435.87 2252.69,412.00
       2252.69,412.00 2225.85,372.00 2225.85,372.00
       2202.50,340.30 2166.77,300.89 2138.00,274.09
       2072.95,213.48 1973.63,159.22 1895.00,116.69
       1895.00,116.69 1789.00,62.74 1789.00,62.74
       1789.00,62.74 1728.00,30.75 1728.00,30.75
       1728.00,30.75 1684.00,7.75 1684.00,7.75
       1677.78,4.64 1671.05,-0.04 1664.00,0.02
       1655.89,0.08 1645.23,5.09 1638.00,8.76
       1638.00,8.76 1590.00,36.57 1590.00,36.57
       1590.00,36.57 1523.00,71.26 1523.00,71.26
       1523.00,71.26 1447.00,110.74 1447.00,110.74
       1447.00,110.74 1422.00,123.31 1422.00,123.31
       1422.00,123.31 1357.00,159.14 1357.00,159.14
       1295.08,193.69 1234.13,230.52 1182.00,279.09
       1146.70,311.98 1116.31,349.35 1088.98,389.00
       1045.68,451.81 1014.54,515.53 996.88,590.00
       991.18,614.03 987.51,638.44 985.04,663.00
       985.04,663.00 985.04,672.00 985.04,672.00
       985.04,672.00 984.00,684.00 984.00,684.00
       984.00,684.00 984.00,711.00 984.00,711.00
       984.00,711.00 984.00,737.00 984.00,737.00
       984.00,737.00 985.00,757.00 985.00,757.00
       985.00,757.00 985.91,767.00 985.91,767.00
       987.49,789.51 991.17,811.87 995.60,834.00
       995.60,834.00 1008.72,892.00 1008.72,892.00
       1008.72,892.00 1014.00,907.00 1014.00,907.00 Z
     M 1097.00,965.00
     C 1097.00,965.00 983.00,965.00 983.00,965.00
       983.00,965.00 968.00,964.00 968.00,964.00
       968.00,964.00 947.00,962.83 947.00,962.83
       947.00,962.83 927.00,961.00 927.00,961.00
       923.22,960.96 914.14,960.48 911.11,962.17
       904.70,965.76 906.33,974.95 905.91,981.00
       905.91,981.00 905.00,989.00 905.00,989.00
       905.00,989.00 1137.00,989.00 1137.00,989.00
       1137.00,989.00 1123.80,955.00 1123.80,955.00
       1123.80,955.00 1102.40,901.00 1102.40,901.00
       1102.40,901.00 1089.35,868.00 1089.35,868.00
       1077.60,832.75 1067.06,769.18 1067.00,732.00
       1067.00,732.00 1066.01,717.00 1066.01,717.00
       1066.01,717.00 1067.00,704.00 1067.00,704.00
       1068.65,562.41 1149.16,424.58 1255.00,334.43
       1291.05,303.72 1330.05,276.19 1371.00,252.42
       1371.00,252.42 1437.00,217.22 1437.00,217.22
       1437.00,217.22 1483.00,192.74 1483.00,192.74
       1483.00,192.74 1610.00,126.75 1610.00,126.75
       1610.00,126.75 1647.00,109.14 1647.00,109.14
       1650.49,107.60 1660.31,103.09 1663.73,103.01
       1666.45,102.95 1672.36,106.43 1675.00,107.75
       1675.00,107.75 1702.00,121.75 1702.00,121.75
       1702.00,121.75 1801.00,171.75 1801.00,171.75
       1801.00,171.75 1891.00,217.74 1891.00,217.74
       1891.00,217.74 1914.00,229.31 1914.00,229.31
       1914.00,229.31 1982.00,269.58 1982.00,269.58
       2014.48,289.80 2049.26,313.08 2078.00,338.29
       2085.53,344.89 2095.09,354.52 2101.83,362.00
       2101.83,362.00 2112.09,374.00 2112.09,374.00
       2112.09,374.00 2134.83,397.00 2134.83,397.00
       2149.29,413.01 2172.75,445.32 2184.19,464.00
       2221.34,524.64 2248.53,587.68 2256.16,659.00
       2256.16,659.00 2259.00,693.00 2259.00,693.00
       2259.00,693.00 2259.00,731.00 2259.00,731.00
       2259.00,731.00 2258.09,743.00 2258.09,743.00
       2255.96,774.17 2251.42,804.36 2245.20,835.00
       2238.23,869.30 2226.25,902.59 2215.98,936.00
       2211.76,949.71 2203.12,975.50 2203.00,989.00
       2203.00,989.00 2430.00,989.00 2430.00,989.00
       2430.00,989.00 2430.00,965.00 2430.00,965.00
       2430.00,965.00 2235.00,965.00 2235.00,965.00
       2241.79,931.25 2254.94,898.96 2264.58,866.00
       2274.71,831.33 2278.75,806.74 2282.17,771.00
       2282.17,771.00 2283.09,757.00 2283.09,757.00
       2283.09,757.00 2284.00,747.00 2284.00,747.00
       2284.00,747.00 2285.00,698.00 2285.00,698.00
       2285.00,698.00 2284.00,677.00 2284.00,677.00
       2284.00,677.00 2283.09,667.00 2283.09,667.00
       2281.35,643.19 2277.18,617.11 2271.12,594.00
       2233.56,450.95 2134.14,340.09 2014.00,258.34
       2014.00,258.34 1975.00,233.86 1975.00,233.86
       1975.00,233.86 1927.00,208.74 1927.00,208.74
       1927.00,208.74 1872.00,179.74 1872.00,179.74
       1872.00,179.74 1726.00,102.74 1726.00,102.74
       1726.00,102.74 1686.00,81.69 1686.00,81.69
       1681.18,79.08 1672.31,73.32 1667.00,73.19
       1661.83,73.07 1651.01,77.85 1646.00,80.00
       1646.00,80.00 1598.00,104.69 1598.00,104.69
       1598.00,104.69 1497.00,155.26 1497.00,155.26
       1497.00,155.26 1457.00,175.75 1457.00,175.75
       1395.72,206.40 1331.87,240.32 1277.00,281.47
       1257.99,295.73 1239.39,310.89 1222.00,327.09
       1161.80,383.17 1105.27,460.33 1074.60,537.00
       1058.11,578.23 1046.02,621.59 1042.91,666.00
       1042.91,666.00 1042.00,677.00 1042.00,677.00
       1042.00,677.00 1042.00,722.00 1042.00,722.00
       1042.00,722.00 1042.96,734.00 1042.96,734.00
       1042.96,734.00 1042.96,746.00 1042.96,746.00
       1042.96,746.00 1044.91,772.00 1044.91,772.00
       1047.70,811.89 1054.07,852.04 1067.00,890.00
       1075.63,915.32 1091.71,938.71 1097.00,965.00 Z
     M 905.00,1005.00
     C 905.00,1005.00 905.00,1037.00 905.00,1037.00
       905.00,1037.00 925.00,1037.00 925.00,1037.00
       925.00,1037.00 925.00,1064.00 925.00,1064.00
       925.00,1064.00 944.00,1064.00 944.00,1064.00
       944.00,1064.00 944.00,1158.00 944.00,1158.00
       944.01,1161.94 943.72,1166.56 946.51,1169.72
       949.27,1172.85 953.16,1172.95 957.00,1173.00
       957.00,1173.00 979.00,1173.00 979.00,1173.00
       979.00,1173.00 1094.00,1173.00 1094.00,1173.00
       1094.00,1173.00 1094.00,1064.00 1094.00,1064.00
       1094.00,1064.00 1118.00,1064.00 1118.00,1064.00
       1118.00,1064.00 1118.00,1037.00 1118.00,1037.00
       1122.26,1036.44 1131.51,1036.31 1134.28,1033.35
       1136.73,1030.72 1136.96,1025.42 1137.00,1022.00
       1137.05,1017.71 1137.47,1010.93 1134.30,1007.65
       1131.64,1004.89 1127.53,1005.02 1124.00,1005.00
       1124.00,1005.00 1083.00,1005.00 1083.00,1005.00
       1083.00,1005.00 905.00,1005.00 905.00,1005.00 Z
     M 2199.00,1037.00
     C 2199.00,1037.00 2218.00,1037.00 2218.00,1037.00
       2218.00,1037.00 2218.00,1064.00 2218.00,1064.00
       2218.00,1064.00 2241.00,1064.00 2241.00,1064.00
       2241.00,1064.00 2241.00,1173.00 2241.00,1173.00
       2241.00,1173.00 2386.00,1173.00 2386.00,1173.00
       2386.00,1173.00 2386.00,1064.00 2386.00,1064.00
       2386.00,1064.00 2411.00,1064.00 2411.00,1064.00
       2411.00,1064.00 2411.00,1037.00 2411.00,1037.00
       2411.00,1037.00 2430.00,1037.00 2430.00,1037.00
       2430.00,1037.00 2430.00,1005.00 2430.00,1005.00
       2430.00,1005.00 2213.00,1005.00 2213.00,1005.00
       2209.65,1005.01 2205.07,1004.76 2202.28,1006.85
       2198.61,1009.60 2199.01,1014.92 2199.00,1019.00
       2199.00,1019.00 2199.00,1037.00 2199.00,1037.00 Z"
  />

        

        <path
    id="hotel"
    fill="none"
    stroke="white"
    stroke-width="1"
    d="M 1351.00,930.00
     C 1352.97,942.58 1359.34,943.18 1358.99,959.00
       1358.99,959.00 1356.28,982.00 1356.28,982.00
       1356.28,982.00 1353.72,1007.00 1353.72,1007.00
       1353.72,1007.00 1351.00,1025.00 1351.00,1025.00
       1351.00,1025.00 1386.00,1025.00 1386.00,1025.00
       1386.00,1025.00 1383.00,981.00 1383.00,981.00
       1383.00,981.00 1418.00,981.00 1418.00,981.00
       1418.00,981.00 1416.70,1008.96 1416.70,1008.96
       1416.70,1008.96 1410.00,1025.00 1410.00,1025.00
       1410.00,1025.00 1449.00,1025.00 1449.00,1025.00
       1447.77,1011.50 1442.16,1016.02 1442.00,1003.00
       1442.00,1003.00 1442.00,975.00 1442.00,975.00
       1442.03,957.95 1448.99,946.84 1449.00,930.00
       1449.00,930.00 1420.00,931.04 1420.00,931.04
       1417.51,931.15 1411.65,931.62 1410.68,934.43
       1409.46,937.97 1414.79,942.24 1416.77,947.00
       1418.67,951.56 1418.00,963.55 1418.00,969.00
       1418.00,969.00 1383.00,969.00 1383.00,969.00
       1383.00,955.18 1382.32,946.10 1392.00,935.00
       1379.40,927.86 1376.32,929.98 1363.00,930.00
       1363.00,930.00 1351.00,930.00 1351.00,930.00 Z
     M 1533.00,930.22
     C 1517.16,933.37 1502.60,939.79 1494.99,955.00
       1482.98,979.01 1496.20,1027.52 1537.00,1028.00
       1556.59,1028.23 1573.60,1022.00 1584.72,1005.00
       1595.89,988.45 1597.73,961.88 1584.72,946.01
       1576.19,935.98 1560.88,930.15 1548.00,930.22
       1543.01,929.95 1537.96,929.80 1533.00,930.22 Z
     M 1636.00,930.00
     C 1635.58,939.07 1631.57,945.59 1632.69,948.77
       1633.89,952.19 1639.05,952.20 1642.00,951.81
       1648.14,951.00 1648.88,947.78 1653.09,945.44
       1656.11,943.76 1659.61,943.29 1663.00,943.00
       1663.00,943.00 1663.00,996.00 1663.00,996.00
       1662.97,1012.55 1657.87,1011.81 1656.00,1025.00
       1656.00,1025.00 1695.00,1025.00 1695.00,1025.00
       1693.85,1012.32 1688.02,1013.85 1688.00,999.00
       1688.00,999.00 1688.00,947.00 1688.00,947.00
       1688.00,947.00 1703.00,943.00 1703.00,943.00
       1703.24,944.38 1703.13,945.12 1703.99,946.41
       1705.61,948.82 1713.21,954.27 1716.26,951.99
       1718.44,950.36 1718.03,944.52 1718.00,942.00
       1717.87,932.48 1714.09,930.11 1705.00,930.00
       1705.00,930.00 1636.00,930.00 1636.00,930.00 Z
     M 1757.00,1025.00
     C 1757.00,1025.00 1824.00,1025.00 1824.00,1025.00
       1832.35,1024.98 1835.43,1022.60 1837.47,1014.00
       1838.53,1009.51 1838.42,1003.63 1832.98,1002.32
       1825.19,1000.43 1823.13,1008.66 1817.00,1011.30
       1811.30,1013.75 1795.82,1013.00 1789.00,1013.00
       1789.00,1013.00 1789.00,981.00 1789.00,981.00
       1789.00,981.00 1824.00,985.00 1824.00,985.00
       1824.00,980.25 1824.93,967.80 1821.44,964.63
       1818.83,962.21 1814.91,963.77 1812.00,964.63
       1804.52,966.96 1796.84,968.64 1789.00,969.00
       1789.00,969.00 1789.00,943.00 1789.00,943.00
       1798.04,943.00 1807.26,943.15 1816.00,945.77
       1820.08,946.99 1825.90,950.67 1829.98,948.78
       1836.35,945.84 1836.84,938.87 1831.87,934.39
       1827.63,930.57 1823.41,930.03 1818.00,930.00
       1818.00,930.00 1777.00,930.00 1777.00,930.00
       1773.31,930.01 1760.04,930.30 1758.71,934.30
       1757.69,937.35 1761.39,941.46 1762.79,944.00
       1764.83,947.70 1764.95,949.91 1764.89,954.00
       1764.89,954.00 1764.89,989.00 1764.89,989.00
       1765.00,991.29 1765.05,993.74 1764.89,996.00
       1764.89,996.00 1757.00,1025.00 1757.00,1025.00 Z
     M 1878.00,930.00
     C 1882.30,953.59 1881.96,945.90 1882.00,970.00
       1882.00,970.00 1883.00,987.00 1883.00,987.00
       1883.02,998.74 1881.01,1013.64 1878.00,1025.00
       1878.00,1025.00 1949.00,1025.00 1949.00,1025.00
       1949.00,1025.00 1951.96,1008.00 1951.96,1008.00
       1952.00,1006.29 1952.07,1003.17 1950.40,1002.13
       1947.34,1000.22 1940.46,1006.36 1938.00,1008.09
       1928.59,1014.68 1920.84,1013.00 1910.00,1013.00
       1910.00,1013.00 1910.00,957.00 1910.00,957.00
       1910.00,957.00 1912.05,945.00 1912.05,945.00
       1912.05,945.00 1919.00,932.00 1919.00,932.00
       1905.97,929.67 1891.26,930.00 1878.00,930.00 Z
     M 1541.00,941.39
     C 1552.72,941.53 1560.93,950.30 1564.23,961.00
       1565.43,964.91 1565.95,968.92 1566.00,973.00
       1566.20,990.06 1565.72,1007.18 1547.00,1013.91
       1545.01,1014.63 1541.07,1015.73 1539.00,1015.77
       1531.39,1015.93 1524.24,1003.44 1522.22,997.00
       1519.58,988.59 1519.99,983.43 1520.83,975.00
       1522.17,961.58 1524.87,944.03 1541.00,941.39 Z"
  />

        <path
    id="Bilyar"
    fill="none"
    stroke="white"
    stroke-width="1"
    d="M 357.00,1433.00
          C 370.23,1417.77 387.54,1408.25 403.00,1395.58
            429.50,1373.87 454.41,1340.65 454.00,1305.00
            453.72,1281.44 436.83,1264.82 417.00,1254.76
            385.30,1238.68 342.11,1235.59 307.00,1236.00
            307.00,1236.00 290.00,1237.00 290.00,1237.00
            290.00,1237.00 280.00,1237.91 280.00,1237.91
            260.56,1239.33 241.13,1242.17 222.00,1246.00
            166.32,1257.13 124.64,1272.13 73.00,1295.14
            58.48,1301.61 32.18,1315.92 19.00,1324.67
            13.53,1328.30 3.31,1334.93 0.85,1341.00
            -4.31,1353.76 12.85,1368.27 29.00,1362.19
            35.18,1359.86 42.24,1353.29 48.00,1349.54
            55.34,1344.77 63.79,1341.61 72.00,1338.69
            99.79,1328.80 147.35,1319.10 177.00,1314.73
            201.65,1311.10 226.12,1308.04 251.00,1306.96
            251.00,1306.96 262.00,1306.00 262.00,1306.00
            262.00,1306.00 290.00,1306.00 290.00,1306.00
            298.85,1306.01 319.21,1308.11 328.00,1309.80
            336.55,1311.45 345.07,1313.67 353.00,1317.31
            357.64,1319.43 362.16,1321.78 366.00,1325.18
            383.34,1340.57 376.90,1360.05 364.33,1376.00
            350.03,1394.15 323.44,1412.04 304.00,1425.00
            294.44,1431.37 278.41,1441.54 271.32,1450.00
            269.44,1452.25 267.32,1455.43 265.87,1458.00
            264.68,1460.12 263.45,1462.66 262.79,1465.00
            258.17,1481.26 279.16,1481.98 290.00,1482.00
            321.55,1482.05 374.05,1477.88 386.90,1515.00
            388.34,1519.17 388.94,1523.60 389.00,1528.00
            389.00,1528.00 389.00,1536.00 389.00,1536.00
            388.90,1543.95 386.59,1551.84 383.22,1559.00
            369.52,1588.13 337.15,1603.38 307.00,1609.20
            301.12,1610.33 289.82,1611.93 284.00,1612.00
            284.00,1612.00 275.00,1612.00 275.00,1612.00
            249.78,1611.96 205.98,1600.84 204.09,1570.00
            203.64,1562.67 207.62,1553.56 210.75,1547.00
            210.75,1547.00 225.72,1518.00 225.72,1518.00
            247.30,1480.05 272.19,1444.13 291.75,1405.00
            300.41,1387.68 313.24,1358.97 315.71,1340.00
            316.96,1330.43 316.29,1317.38 304.00,1316.39
            292.86,1315.49 277.67,1324.80 269.00,1331.15
            255.87,1340.78 241.91,1354.53 232.75,1368.00
            232.75,1368.00 210.58,1408.00 210.58,1408.00
            210.58,1408.00 181.22,1468.00 181.22,1468.00
            166.73,1498.67 152.20,1529.49 139.60,1561.00
            135.74,1570.66 124.21,1597.92 124.18,1607.00
            124.16,1611.65 126.13,1617.92 128.32,1622.00
            134.61,1633.71 146.99,1640.04 159.00,1644.41
            185.06,1653.89 209.90,1653.04 237.00,1653.00
            254.78,1652.97 281.48,1648.04 299.00,1643.88
            346.67,1632.57 388.59,1613.46 426.00,1581.42
            433.68,1574.85 440.42,1567.49 447.17,1560.00
            462.99,1542.42 472.28,1530.45 472.00,1506.00
            471.90,1497.67 469.35,1489.46 465.74,1482.00
            462.67,1475.65 459.80,1470.43 455.08,1465.09
            434.19,1441.48 397.18,1434.35 367.00,1434.00
            362.47,1433.94 361.30,1433.57 357.00,1433.00 Z
          M 652.00,1571.00
          C 647.64,1568.77 643.97,1567.26 639.00,1567.04
            634.65,1566.85 631.87,1567.25 628.00,1569.35
            628.00,1569.35 615.00,1578.62 615.00,1578.62
            607.78,1582.85 596.97,1584.83 590.11,1578.62
            588.31,1577.13 587.02,1575.23 586.15,1573.00
            585.16,1570.48 584.94,1567.68 585.09,1565.00
            585.89,1550.99 596.01,1527.23 601.72,1514.00
            601.72,1514.00 623.40,1463.00 623.40,1463.00
            628.52,1450.09 633.98,1434.98 634.00,1421.00
            634.00,1421.00 634.00,1410.00 634.00,1410.00
            613.69,1410.06 603.79,1415.52 586.00,1423.69
            575.86,1428.35 567.79,1430.99 560.33,1440.00
            553.90,1447.75 547.28,1465.26 543.58,1475.00
            543.58,1475.00 526.00,1522.00 526.00,1522.00
            518.73,1543.81 508.27,1574.07 508.00,1597.00
            507.91,1604.98 507.74,1608.24 510.36,1616.00
            511.91,1620.61 513.63,1624.01 516.44,1628.00
            520.28,1633.45 525.50,1638.35 532.00,1640.38
            547.68,1645.28 574.60,1633.19 589.00,1626.70
            589.00,1626.70 603.00,1620.31 603.00,1620.31
            624.42,1610.50 638.96,1607.82 651.00,1585.00
            652.72,1591.06 651.99,1600.47 652.00,1607.00
            652.00,1609.37 651.78,1612.61 653.02,1614.68
            655.68,1619.10 670.86,1626.06 676.00,1629.00
            681.04,1631.88 694.43,1640.38 699.00,1641.47
            701.88,1642.16 705.97,1642.00 709.00,1642.00
            729.85,1641.97 759.37,1624.93 776.00,1612.85
            789.11,1603.32 808.13,1587.41 816.90,1574.00
            821.19,1567.44 825.26,1559.03 823.66,1551.00
            822.78,1546.58 819.39,1542.78 817.00,1539.00
            810.90,1540.49 806.04,1544.82 801.00,1548.42
            788.02,1557.69 768.25,1570.98 753.00,1575.25
            738.66,1579.28 730.19,1573.11 730.00,1558.00
            730.00,1558.00 730.00,1554.00 730.00,1554.00
            730.21,1536.33 740.71,1508.72 747.19,1492.00
            762.45,1452.62 781.88,1414.97 800.26,1377.00
            810.62,1355.59 827.58,1318.38 828.91,1295.00
            829.59,1282.98 825.39,1276.73 813.00,1277.01
            803.62,1277.23 795.34,1281.87 787.00,1285.69
            787.00,1285.69 758.00,1298.58 758.00,1298.58
            752.27,1301.07 742.38,1305.18 738.65,1310.09
            734.68,1315.31 733.04,1330.04 731.74,1337.00
            728.96,1351.89 723.80,1370.59 719.00,1385.00
            707.54,1419.40 693.82,1453.05 678.69,1486.00
            666.87,1511.74 652.02,1542.19 652.00,1571.00 Z
          M 623.00,1330.30
          C 602.80,1334.17 586.41,1343.66 574.75,1361.00
            569.18,1369.28 564.24,1379.82 566.53,1390.00
            567.77,1395.53 568.77,1399.72 575.00,1399.98
            575.00,1399.98 590.00,1399.00 590.00,1399.00
            606.62,1398.81 630.12,1397.64 641.67,1383.99
            650.02,1374.13 650.99,1362.17 652.17,1350.00
            652.67,1344.80 653.10,1343.66 653.00,1338.00
            652.96,1336.00 653.11,1333.42 651.40,1332.01
            650.06,1330.89 645.78,1330.34 644.00,1330.30
            639.54,1329.73 627.45,1329.87 623.00,1330.30 Z
          M 963.00,1527.00
          C 963.00,1527.00 944.05,1579.00 944.05,1579.00
            944.05,1579.00 919.42,1646.00 919.42,1646.00
            907.79,1677.09 900.85,1702.52 882.31,1731.00
            866.51,1755.25 839.93,1782.28 809.00,1782.99
            797.78,1783.24 785.72,1780.09 775.00,1777.00
            771.84,1776.09 761.10,1772.61 758.41,1773.66
            756.27,1774.50 755.18,1778.00 754.42,1780.00
            751.90,1786.64 750.09,1793.88 750.00,1801.00
            750.00,1801.00 750.00,1809.00 750.00,1809.00
            750.27,1831.67 767.71,1851.96 791.00,1852.00
            817.78,1852.04 839.08,1851.98 863.00,1837.55
            875.13,1830.23 885.57,1819.20 894.12,1808.00
            916.59,1778.54 936.91,1739.60 952.78,1706.00
            977.91,1652.81 999.50,1597.97 1020.42,1543.00
            1020.42,1543.00 1062.67,1437.00 1062.67,1437.00
            1062.67,1437.00 1071.00,1414.00 1071.00,1414.00
            1065.35,1410.32 1063.47,1409.35 1057.00,1407.35
            1018.98,1395.55 986.61,1435.23 966.88,1462.00
            966.88,1462.00 954.86,1479.00 954.86,1479.00
            954.86,1479.00 938.69,1503.00 938.69,1503.00
            933.29,1511.39 924.87,1528.74 917.91,1534.47
            915.51,1536.45 912.77,1537.65 910.00,1539.00
            910.00,1539.00 913.09,1501.00 913.09,1501.00
            915.21,1470.09 915.96,1465.19 922.15,1435.00
            924.19,1424.04 929.02,1404.84 922.15,1395.02
            919.64,1391.12 916.42,1389.38 912.00,1388.16
            899.19,1384.63 891.09,1390.23 881.00,1397.43
            873.63,1402.68 862.97,1410.75 857.79,1418.00
            849.09,1430.15 844.02,1459.01 844.00,1474.00
            844.00,1474.00 844.00,1495.00 844.00,1495.00
            844.00,1495.00 843.00,1510.00 843.00,1510.00
            843.00,1510.00 843.00,1567.00 843.00,1567.00
            843.00,1567.00 846.92,1605.00 846.92,1605.00
            847.48,1608.40 849.82,1621.29 850.99,1623.77
            853.01,1628.03 860.85,1628.01 865.00,1628.58
            880.87,1630.74 897.73,1625.74 908.83,1613.96
            923.46,1598.44 932.78,1571.18 943.31,1552.00
            949.40,1540.92 954.20,1535.80 963.00,1527.00 Z
          M 1476.00,1446.00
          C 1476.00,1434.56 1476.31,1424.16 1472.78,1413.00
            1471.27,1408.23 1468.60,1402.83 1463.98,1400.45
            1455.83,1396.25 1445.64,1402.58 1438.00,1405.30
            1438.00,1405.30 1395.00,1419.78 1395.00,1419.78
            1384.01,1425.07 1377.70,1429.08 1378.01,1442.00
            1378.25,1451.78 1382.15,1458.60 1392.00,1461.10
            1397.23,1462.42 1403.76,1461.91 1407.69,1466.22
            1411.04,1469.91 1410.05,1479.11 1410.00,1484.00
            1410.00,1484.00 1409.00,1494.00 1409.00,1494.00
            1409.00,1494.00 1409.00,1503.00 1409.00,1503.00
            1407.69,1520.88 1404.09,1542.34 1395.13,1558.00
            1388.61,1569.40 1382.44,1573.69 1374.59,1583.00
            1372.09,1585.97 1367.18,1591.15 1366.72,1595.00
            1366.27,1598.87 1370.44,1608.43 1372.32,1612.00
            1377.99,1622.78 1387.59,1633.74 1399.00,1638.54
            1404.72,1640.94 1409.07,1640.94 1415.00,1642.00
            1417.14,1632.87 1420.52,1630.36 1425.48,1623.00
            1431.25,1614.45 1440.14,1600.30 1444.13,1591.00
            1452.67,1571.05 1453.07,1548.28 1460.61,1529.00
            1468.94,1507.72 1485.13,1490.87 1501.00,1475.00
            1501.00,1475.00 1510.00,1466.09 1510.00,1466.09
            1521.23,1455.63 1529.63,1449.27 1545.00,1446.75
            1555.34,1445.06 1560.55,1445.80 1567.82,1454.00
            1570.45,1456.98 1571.88,1459.34 1573.37,1463.00
            1575.32,1467.76 1576.57,1472.88 1577.00,1478.00
            1580.70,1477.83 1584.46,1477.37 1588.00,1476.22
            1605.63,1470.47 1602.76,1452.95 1598.85,1439.00
            1598.85,1439.00 1591.58,1420.00 1591.58,1420.00
            1589.47,1415.07 1586.33,1407.26 1583.40,1403.01
            1576.41,1392.87 1564.16,1387.15 1552.00,1387.00
            1527.88,1386.72 1507.20,1399.41 1493.44,1419.00
            1487.25,1427.81 1484.50,1438.91 1476.00,1446.00 Z
          M 1241.04,1557.00
          C 1241.04,1557.00 1241.04,1569.00 1241.04,1569.00
            1241.04,1569.00 1242.00,1581.00 1242.00,1581.00
            1242.02,1592.57 1242.90,1603.59 1244.92,1615.00
            1247.01,1626.74 1250.93,1634.84 1264.00,1635.00
            1264.00,1635.00 1281.00,1635.00 1281.00,1635.00
            1281.00,1635.00 1294.00,1636.00 1294.00,1636.00
            1294.00,1636.00 1303.00,1636.00 1303.00,1636.00
            1306.57,1635.99 1310.79,1636.38 1313.49,1633.57
            1316.93,1630.00 1315.59,1625.29 1315.17,1621.00
            1315.17,1621.00 1313.00,1595.00 1313.00,1595.00
            1312.64,1564.20 1320.13,1533.01 1330.08,1504.00
            1336.00,1486.74 1349.80,1450.80 1350.00,1434.00
            1350.00,1434.00 1350.00,1429.00 1350.00,1429.00
            1349.77,1409.34 1337.32,1399.85 1320.00,1394.00
            1293.86,1385.18 1267.27,1389.61 1242.00,1399.05
            1218.12,1407.97 1190.41,1425.84 1170.00,1441.13
            1170.00,1441.13 1132.00,1471.09 1132.00,1471.09
            1113.75,1488.07 1097.30,1510.55 1084.60,1532.00
            1071.36,1554.38 1062.93,1571.54 1067.61,1598.00
            1069.47,1608.51 1073.09,1619.02 1084.00,1623.19
            1092.97,1626.61 1105.88,1624.64 1115.00,1622.37
            1131.08,1618.38 1157.99,1609.08 1173.00,1602.23
            1188.44,1595.19 1212.01,1584.29 1225.00,1573.99
            1233.59,1567.17 1232.69,1564.17 1241.04,1557.00 Z
          M 1293.00,1427.00
          C 1291.90,1450.91 1279.24,1465.79 1264.28,1483.00
            1245.51,1504.59 1223.15,1528.71 1202.00,1547.83
            1194.29,1554.81 1180.27,1566.38 1171.00,1570.68
            1166.70,1572.67 1160.17,1574.54 1156.31,1570.68
            1152.70,1567.07 1154.11,1560.33 1155.52,1556.00
            1159.12,1544.92 1168.21,1531.52 1175.00,1522.00
            1196.42,1491.95 1212.33,1477.32 1240.00,1453.73
            1256.06,1440.03 1270.54,1427.20 1293.00,1427.00 Z
          M 964.00,1526.00
          C 964.00,1526.00 964.00,1527.00 964.00,1527.00
            964.00,1527.00 963.00,1526.00 963.00,1526.00
            963.00,1526.00 964.00,1526.00 964.00,1526.00 Z"
  />

        <path
    id="Palace"
    fill="none"
    stroke="white"
    stroke-width="1"
    d="M 1934.00,1606.00
     C 1934.00,1606.00 1982.34,1468.00 1982.34,1468.00
       1982.34,1468.00 1997.56,1425.00 1997.56,1425.00
       2001.77,1410.78 2007.82,1372.73 2007.83,1358.00
       2007.83,1358.00 2007.83,1344.00 2007.83,1344.00
       2006.20,1336.42 2001.17,1330.38 1993.00,1333.10
       1991.09,1333.74 1988.75,1334.87 1987.00,1335.88
       1984.38,1337.39 1982.25,1338.96 1980.09,1341.09
       1969.14,1351.93 1961.36,1370.87 1955.28,1385.00
       1955.28,1385.00 1925.60,1458.00 1925.60,1458.00
       1925.60,1458.00 1893.80,1537.00 1893.80,1537.00
       1893.80,1537.00 1874.80,1584.00 1874.80,1584.00
       1871.73,1591.68 1866.97,1604.97 1861.79,1611.00
       1856.15,1617.56 1847.46,1621.57 1840.00,1625.85
       1840.00,1625.85 1823.00,1636.00 1823.00,1636.00
       1825.65,1652.87 1838.40,1657.64 1838.96,1670.00
       1839.40,1679.74 1833.89,1695.72 1830.42,1705.00
       1830.42,1705.00 1811.00,1753.00 1811.00,1753.00
       1806.80,1762.89 1801.13,1774.15 1801.00,1785.00
       1800.95,1789.33 1800.95,1802.31 1804.56,1804.98
       1806.31,1806.27 1810.82,1806.04 1813.00,1805.99
       1830.89,1805.56 1851.17,1798.16 1867.00,1790.25
       1871.48,1788.00 1882.60,1782.39 1885.40,1778.68
       1887.65,1775.70 1886.75,1772.38 1886.27,1769.00
       1885.43,1763.11 1883.81,1755.78 1884.04,1750.00
       1884.35,1742.33 1888.67,1731.62 1890.86,1724.00
       1896.67,1703.80 1906.72,1670.97 1921.04,1656.00
       1935.77,1640.60 1953.26,1638.99 1973.00,1634.79
       1990.74,1631.01 2008.23,1625.94 2025.00,1618.99
       2086.17,1593.63 2129.15,1547.28 2149.02,1484.00
       2153.77,1468.89 2158.81,1447.79 2159.00,1432.00
       2159.33,1403.36 2159.05,1381.57 2148.95,1354.00
       2143.49,1339.11 2137.56,1328.08 2128.66,1315.00
       2091.18,1259.94 2023.51,1238.73 1960.00,1235.96
       1960.00,1235.96 1949.00,1235.00 1949.00,1235.00
       1921.53,1234.68 1894.59,1239.22 1868.00,1245.87
       1831.63,1254.98 1785.54,1272.52 1754.00,1292.59
       1740.31,1301.30 1719.38,1316.83 1714.79,1333.00
       1713.63,1337.08 1713.95,1347.31 1714.00,1352.00
       1714.07,1357.25 1714.82,1362.76 1718.39,1366.89
       1725.55,1375.18 1740.40,1374.18 1747.33,1365.96
       1747.33,1365.96 1764.30,1343.00 1764.30,1343.00
       1774.91,1330.61 1787.26,1322.06 1802.00,1315.31
       1823.49,1305.47 1850.49,1300.69 1874.00,1299.00
       1874.00,1299.00 1882.00,1299.00 1882.00,1299.00
       1882.00,1299.00 1894.00,1298.00 1894.00,1298.00
       1894.00,1298.00 1913.00,1298.00 1913.00,1298.00
       1913.00,1298.00 1925.00,1298.91 1925.00,1298.91
       1956.12,1301.19 1991.08,1309.68 2018.00,1325.80
       2054.54,1347.68 2077.93,1377.75 2081.09,1421.00
       2081.37,1424.87 2082.15,1426.80 2081.91,1431.00
       2079.00,1482.35 2043.18,1538.54 2005.00,1571.27
       1982.81,1590.30 1963.31,1602.13 1934.00,1606.00 Z
     M 2620.00,1589.00
     C 2620.00,1604.20 2620.21,1628.66 2637.00,1635.52
       2641.44,1637.33 2646.30,1637.05 2651.00,1637.00
       2663.63,1636.85 2681.86,1629.01 2694.00,1624.69
       2713.73,1617.67 2744.24,1608.60 2761.00,1596.96
       2761.00,1596.96 2792.00,1573.00 2792.00,1573.00
       2792.00,1589.61 2794.27,1603.70 2796.58,1620.00
       2797.54,1626.80 2798.04,1636.34 2802.64,1641.79
       2806.81,1646.74 2811.39,1645.70 2817.00,1646.09
       2817.00,1646.09 2848.00,1648.17 2848.00,1648.17
       2852.41,1648.59 2859.93,1650.49 2863.26,1646.57
       2865.24,1644.25 2865.08,1639.91 2864.96,1637.00
       2864.96,1637.00 2864.04,1629.00 2864.04,1629.00
       2864.04,1629.00 2864.04,1613.00 2864.04,1613.00
       2864.04,1613.00 2864.91,1602.00 2864.91,1602.00
       2867.15,1569.96 2875.52,1538.68 2884.72,1508.00
       2890.85,1487.57 2898.08,1466.34 2899.68,1445.00
       2899.89,1442.22 2899.50,1440.69 2899.13,1438.00
       2898.44,1433.07 2897.80,1429.32 2895.03,1425.00
       2884.93,1409.25 2857.46,1403.97 2840.00,1404.00
       2819.76,1404.03 2794.94,1413.76 2777.00,1422.75
       2743.34,1439.62 2712.50,1462.33 2685.00,1487.91
       2685.00,1487.91 2677.04,1495.04 2677.04,1495.04
       2677.04,1495.04 2668.97,1504.00 2668.97,1504.00
       2657.25,1516.40 2649.00,1528.51 2640.20,1543.00
       2635.61,1550.56 2630.82,1557.98 2630.00,1567.00
       2630.00,1567.00 2626.00,1554.00 2626.00,1554.00
       2619.27,1554.89 2612.27,1555.07 2606.00,1557.90
       2606.00,1557.90 2569.00,1581.75 2569.00,1581.75
       2561.95,1585.30 2550.73,1591.23 2543.04,1586.72
       2536.59,1582.94 2534.84,1573.89 2535.59,1567.00
       2537.25,1551.78 2539.69,1541.58 2544.34,1527.00
       2560.92,1475.14 2592.81,1413.87 2614.58,1362.00
       2614.58,1362.00 2631.28,1317.00 2631.28,1317.00
       2632.62,1312.30 2634.57,1302.52 2631.28,1298.39
       2628.07,1294.41 2621.59,1294.95 2617.00,1295.00
       2601.99,1295.18 2570.36,1309.41 2557.00,1317.00
       2552.10,1319.79 2543.17,1323.96 2539.80,1328.18
       2533.74,1335.77 2534.79,1346.94 2533.72,1356.00
       2531.87,1371.56 2528.80,1386.17 2523.66,1401.00
       2511.30,1436.59 2494.35,1470.59 2479.14,1505.00
       2468.67,1528.68 2456.31,1558.82 2456.00,1585.00
       2456.00,1585.00 2456.00,1612.00 2456.00,1612.00
       2456.01,1617.10 2456.14,1622.50 2459.00,1626.96
       2462.97,1633.13 2479.95,1640.06 2487.00,1643.78
       2495.87,1648.46 2503.58,1653.30 2514.00,1653.91
       2525.94,1654.60 2540.88,1646.62 2551.00,1640.85
       2566.80,1631.84 2590.47,1616.48 2604.00,1604.71
       2604.00,1604.71 2620.00,1589.00 2620.00,1589.00 Z
     M 2320.00,1573.00
     C 2320.00,1573.00 2320.91,1596.00 2320.91,1596.00
       2321.92,1610.77 2321.82,1619.12 2328.76,1633.00
       2330.70,1636.88 2336.07,1646.95 2340.09,1648.36
       2342.74,1649.29 2350.19,1647.06 2354.00,1646.90
       2354.00,1646.90 2372.00,1649.00 2372.00,1649.00
       2384.29,1649.14 2392.91,1649.53 2393.79,1634.00
       2393.79,1634.00 2390.09,1603.00 2390.09,1603.00
       2389.56,1593.56 2394.53,1568.91 2396.88,1559.00
       2396.88,1559.00 2418.42,1484.00 2418.42,1484.00
       2421.95,1471.65 2427.86,1450.44 2428.00,1438.00
       2428.04,1433.97 2428.21,1429.73 2426.43,1426.00
       2423.58,1420.02 2416.82,1415.56 2411.00,1412.78
       2395.52,1405.39 2380.67,1404.97 2364.00,1405.00
       2339.86,1405.04 2318.71,1415.47 2298.00,1426.69
       2255.70,1449.62 2207.54,1483.97 2180.34,1524.00
       2180.34,1524.00 2168.58,1543.00 2168.58,1543.00
       2157.94,1560.17 2148.27,1576.23 2147.09,1597.00
       2146.33,1610.45 2155.27,1632.83 2169.00,1637.13
       2174.26,1638.79 2189.34,1634.98 2195.00,1633.42
       2195.00,1633.42 2250.00,1616.00 2250.00,1616.00
       2263.49,1611.40 2281.51,1603.53 2293.00,1595.25
       2293.00,1595.25 2320.00,1573.00 2320.00,1573.00 Z
     M 3227.00,1591.00
     C 3238.20,1589.27 3252.54,1581.83 3262.00,1575.66
       3284.70,1560.83 3301.06,1543.04 3313.68,1519.00
       3313.68,1519.00 3322.58,1498.00 3322.58,1498.00
       3329.09,1482.77 3335.79,1472.24 3336.00,1455.00
       3336.10,1445.93 3336.77,1435.28 3332.62,1427.00
       3327.09,1415.93 3315.90,1411.14 3304.00,1411.00
       3279.50,1410.72 3259.52,1416.65 3238.00,1428.31
       3223.54,1436.15 3191.13,1461.16 3180.09,1473.00
       3173.71,1479.84 3168.23,1487.53 3162.63,1495.00
       3149.55,1512.44 3140.86,1525.60 3135.15,1547.00
       3131.56,1560.47 3131.84,1571.30 3132.00,1585.00
       3132.06,1589.58 3133.18,1597.52 3134.24,1602.00
       3141.29,1631.98 3169.02,1632.92 3194.00,1638.65
       3210.75,1642.49 3237.53,1649.92 3254.00,1650.00
       3270.03,1650.07 3282.13,1647.50 3297.00,1641.55
       3305.63,1638.10 3318.18,1632.31 3322.91,1624.00
       3324.73,1620.80 3326.64,1608.71 3323.43,1606.17
       3321.66,1604.79 3317.21,1604.96 3315.00,1605.01
       3291.73,1605.54 3267.43,1620.53 3245.00,1607.54
       3236.07,1602.37 3233.61,1598.20 3227.00,1591.00 Z
     M 3121.00,1547.00
     C 3114.36,1547.00 3107.85,1547.36 3102.00,1550.99
       3093.71,1556.14 3090.66,1565.86 3077.00,1575.84
       3069.75,1581.14 3061.22,1584.74 3053.00,1588.28
       3038.61,1594.49 3019.73,1601.66 3004.00,1602.00
       3004.32,1587.17 3008.94,1570.81 3014.19,1557.00
       3023.41,1532.76 3038.35,1505.91 3059.00,1489.67
       3068.45,1482.24 3077.01,1478.87 3089.00,1479.00
       3089.00,1479.00 3108.82,1481.31 3108.82,1481.31
       3111.60,1480.37 3114.42,1475.46 3115.94,1473.00
       3120.98,1464.83 3124.80,1454.75 3122.61,1445.00
       3121.10,1438.30 3115.12,1433.08 3110.00,1429.00
       3105.32,1425.27 3097.90,1419.65 3092.00,1418.39
       3086.66,1417.24 3077.13,1419.57 3072.00,1421.44
       3059.38,1426.02 3046.39,1433.33 3035.00,1440.42
       2991.22,1467.69 2957.09,1498.32 2933.75,1545.00
       2925.84,1560.83 2917.21,1584.21 2917.00,1602.00
       2916.88,1612.21 2917.11,1622.71 2921.98,1632.00
       2930.80,1648.81 2953.67,1652.79 2971.00,1653.00
       2971.00,1653.00 2997.00,1653.00 2997.00,1653.00
       3011.07,1652.98 3026.30,1647.57 3039.00,1641.77
       3056.94,1633.58 3073.62,1623.61 3089.00,1611.20
       3104.15,1598.97 3120.97,1582.84 3121.00,1562.00
       3121.00,1562.00 3121.00,1547.00 3121.00,1547.00 Z
     M 2373.00,1442.00
     C 2371.83,1454.86 2358.97,1474.26 2351.66,1485.00
       2333.39,1511.84 2302.79,1545.38 2277.00,1564.87
       2265.62,1573.47 2249.50,1584.78 2235.00,1586.00
       2235.37,1569.39 2246.97,1549.55 2256.00,1536.00
       2274.48,1508.28 2300.30,1479.34 2328.00,1460.67
       2341.92,1451.29 2355.90,1443.40 2373.00,1442.00 Z
     M 2707.00,1586.00
     C 2707.44,1565.73 2718.25,1547.71 2730.13,1532.00
       2730.13,1532.00 2761.04,1495.04 2761.04,1495.04
       2771.22,1484.86 2782.76,1475.20 2794.00,1466.20
       2803.47,1458.61 2815.01,1449.93 2826.00,1444.61
       2830.41,1442.71 2836.49,1440.35 2840.57,1444.61
       2844.41,1448.28 2842.17,1454.60 2840.57,1459.00
       2836.70,1469.60 2828.12,1481.93 2821.37,1491.00
       2802.89,1515.84 2768.62,1550.81 2743.00,1568.00
       2732.82,1574.83 2719.25,1584.08 2707.00,1586.00 Z
     M 3219.00,1550.00
     C 3219.52,1526.02 3235.90,1488.16 3254.04,1472.62
       3261.99,1465.80 3273.33,1457.49 3284.00,1462.31
       3285.60,1463.04 3288.25,1464.33 3289.62,1465.63
       3291.69,1468.25 3290.62,1471.99 3289.62,1475.00
       3287.76,1483.07 3285.95,1487.57 3282.25,1495.00
       3270.60,1518.34 3247.89,1549.91 3219.00,1550.00 Z"
  />
      </svg>
